<?xml version="1.0" standalone="no"?>
<!DOCTYPE svg PUBLIC "-//W3C//DTD SVG 20010904//EN"
 "http://www.w3.org/TR/2001/REC-SVG-20010904/DTD/svg10.dtd">
<svg version="1.0" xmlns="http://www.w3.org/2000/svg"
 width="500.000000pt" height="500.000000pt" viewBox="0 0 500.000000 500.000000"
 preserveAspectRatio="xMidYMid meet">
<metadata>
Created by potrace 1.14, written by Peter Selinger 2001-2017
</metadata>
<g transform="translate(0.000000,500.000000) scale(0.100000,-0.100000)"
fill="#000000" stroke="none">
<path d="M218 4986 c-100 -27 -186 -119 -208 -221 -7 -34 -10 -749 -8 -2295
l3 -2245 21 -46 c28 -60 87 -119 150 -150 l49 -24 2275 0 2275 0 46 21 c60 28
119 87 150 150 l24 49 0 2275 0 2275 -21 46 c-28 60 -87 119 -150 150 l-49 24
-2255 2 c-1799 1 -2265 -1 -2302 -11z m1322 -1257 c376 -46 597 -220 681 -535
28 -105 31 -321 5 -439 -52 -235 -181 -403 -390 -506 -170 -83 -310 -109 -598
-109 l-178 0 0 -440 0 -440 -265 0 -265 0 0 1240 0 1240 463 0 c263 0 499 -5
547 -11z m2142 1 c65 -5 153 -17 195 -26 291 -60 485 -235 559 -504 27 -95 26
-377 0 -475 -80 -301 -287 -487 -616 -556 -81 -16 -156 -23 -325 -28 l-220 -6
-3 -437 -2 -438 -260 0 -260 0 0 1240 0 1240 408 0 c224 0 460 -5 524 -10z"/>
<path d="M1060 2940 l0 -373 153 6 c276 11 403 70 471 216 18 39 21 64 21 161
-1 140 -21 196 -96 264 -77 69 -146 87 -366 94 l-183 5 0 -373z"/>
<path d="M3277 3303 c-4 -3 -7 -170 -7 -370 l0 -363 148 0 c218 0 336 34 423
121 75 75 109 200 89 327 -14 86 -39 140 -84 185 -79 80 -186 107 -415 107
-81 0 -151 -3 -154 -7z"/>
</g>
</svg>
