<svg width="872" height="494" viewBox="0 0 872 494" fill="none" xmlns="http://www.w3.org/2000/svg">
<g filter="url(#filter0_f_6589_138)">
<path d="M903.299 325.607C900.199 342.712 885.238 356.94 860.579 367.967C835.938 378.985 801.731 386.75 760.386 390.992C677.704 399.475 566.592 393.856 446.658 372.113C326.723 350.37 220.711 316.626 146.268 279.658C109.044 261.173 79.7399 241.894 60.5349 222.926C41.3159 203.945 32.3022 185.37 35.403 168.266C38.5039 151.162 53.4644 136.933 78.1236 125.907C102.765 114.888 136.972 107.123 178.316 102.881C260.999 94.3984 372.11 100.017 492.045 121.76C611.979 143.503 717.992 177.247 792.434 214.215C829.659 232.7 858.963 251.979 878.168 270.947C897.387 289.928 906.4 308.503 903.299 325.607Z" stroke="#FF5500"/>
<path d="M842.904 314.673C840.172 329.743 826.989 342.291 805.228 352.022C783.484 361.745 753.296 368.598 716.804 372.342C643.825 379.829 545.751 374.87 439.887 355.678C334.022 336.486 240.449 306.701 174.743 274.071C141.887 257.755 116.026 240.741 99.0798 224.004C82.1194 207.253 74.18 190.876 76.9119 175.806C79.6439 160.737 92.8272 148.189 114.588 138.458C136.332 128.735 166.52 121.882 203.012 118.138C275.991 110.651 374.065 115.61 479.929 134.802C585.794 153.994 679.367 183.779 745.073 216.408C777.929 232.725 803.79 249.739 820.736 266.476C837.697 283.227 845.636 299.604 842.904 314.673Z" stroke="#FF5500"/>
<path d="M801.063 304.274C798.612 317.793 786.783 329.061 767.228 337.806C747.692 346.541 720.565 352.701 687.767 356.065C622.179 362.794 534.033 358.338 438.884 341.088C343.735 323.838 259.635 297.069 200.583 267.744C171.054 253.079 147.815 237.789 132.589 222.751C117.348 207.699 110.227 192.995 112.678 179.476C115.129 165.956 126.959 154.688 146.513 145.944C166.049 137.208 193.177 131.049 225.974 127.684C291.562 120.955 379.708 125.412 474.857 142.661C570.006 159.911 654.107 186.681 713.159 216.006C742.688 230.67 765.927 245.96 781.153 260.998C796.393 276.05 803.514 290.754 801.063 304.274Z" stroke="#FF5500"/>
</g>
<defs>
<filter id="filter0_f_6589_138" x="30.3033" y="94.6074" width="878.096" height="304.658" filterUnits="userSpaceOnUse" color-interpolation-filters="sRGB">
<feFlood flood-opacity="0" result="BackgroundImageFix"/>
<feBlend mode="normal" in="SourceGraphic" in2="BackgroundImageFix" result="shape"/>
<feGaussianBlur stdDeviation="2" result="effect1_foregroundBlur_6589_138"/>
</filter>
</defs>
</svg>
