<svg width="200" height="25" viewBox="0 0 200 25" fill="none" xmlns="http://www.w3.org/2000/svg">
<path d="M5.94678 1.15332C8.24984 1.15332 9.93034 1.64974 10.9883 2.64258C12.0462 3.62728 12.5752 4.98633 12.5752 6.71973C12.5752 7.50098 12.4572 8.24967 12.2212 8.96582C11.9852 9.67383 11.5986 10.3045 11.0615 10.8579C10.5326 11.4113 9.82454 11.8507 8.9375 12.1763C8.05046 12.4937 6.95589 12.6523 5.65381 12.6523H4.03027V19H0.246094V1.15332H5.94678ZM5.75146 4.25391H4.03027V9.55176H5.27539C5.9834 9.55176 6.59782 9.45817 7.11865 9.271C7.63949 9.08382 8.04232 8.79085 8.32715 8.39209C8.61198 7.99333 8.75439 7.48063 8.75439 6.854C8.75439 5.9751 8.51025 5.32406 8.02197 4.90088C7.53369 4.46956 6.77686 4.25391 5.75146 4.25391ZM23.4028 5.09619C24.8595 5.09619 26.0314 5.49495 26.9185 6.29248C27.8055 7.08187 28.249 8.3514 28.249 10.1011V19H24.5259V11.0288C24.5259 10.0522 24.3468 9.31576 23.9888 8.81934C23.6388 8.32292 23.0854 8.07471 22.3286 8.07471C21.1893 8.07471 20.4121 8.46126 19.9971 9.23438C19.582 10.0075 19.3745 11.1224 19.3745 12.5791V19H15.6514V5.35254H18.4956L18.9961 7.09814H19.2036C19.4966 6.62614 19.8587 6.24365 20.29 5.95068C20.7295 5.65771 21.2137 5.44206 21.7427 5.30371C22.2798 5.16536 22.8332 5.09619 23.4028 5.09619ZM37.7095 5.09619C38.9709 5.09619 40.0573 5.34033 40.9688 5.82861C41.8802 6.30876 42.5841 7.00863 43.0806 7.92822C43.577 8.84782 43.8252 9.97087 43.8252 11.2974V13.104H35.0239C35.0646 14.1538 35.3779 14.9798 35.9639 15.582C36.5579 16.1761 37.3799 16.4731 38.4297 16.4731C39.3005 16.4731 40.098 16.3836 40.8223 16.2046C41.5465 16.0256 42.2912 15.757 43.0562 15.3989V18.2798C42.3807 18.6134 41.6727 18.8576 40.9321 19.0122C40.1997 19.1668 39.3086 19.2441 38.2588 19.2441C36.8916 19.2441 35.679 18.9919 34.6211 18.4873C33.5713 17.9827 32.7453 17.2137 32.1431 16.1802C31.549 15.1466 31.252 13.8446 31.252 12.2739C31.252 10.6789 31.5205 9.35238 32.0576 8.29443C32.6029 7.22835 33.3597 6.43083 34.3281 5.90186C35.2965 5.36475 36.4237 5.09619 37.7095 5.09619ZM37.7339 7.74512C37.0096 7.74512 36.4074 7.97705 35.9272 8.44092C35.4552 8.90479 35.1826 9.63314 35.1094 10.626H40.334C40.3258 10.0726 40.2241 9.58024 40.0288 9.14893C39.8416 8.71761 39.5568 8.37581 39.1743 8.12354C38.8 7.87126 38.3198 7.74512 37.7339 7.74512ZM50.0996 19L44.8994 5.35254H48.7935L51.4302 13.1284C51.5767 13.5841 51.6906 14.0643 51.772 14.5688C51.8615 15.0734 51.9225 15.5251 51.9551 15.9238H52.0527C52.0771 15.4925 52.1341 15.0327 52.2236 14.5444C52.3213 14.0562 52.4474 13.5841 52.6021 13.1284L55.2266 5.35254H59.1206L53.9204 19H50.0996ZM77.1138 5.09619C78.66 5.09619 79.8278 5.49495 80.6172 6.29248C81.4147 7.08187 81.8135 8.3514 81.8135 10.1011V19H78.0781V11.0288C78.0781 10.0522 77.9113 9.31576 77.5776 8.81934C77.244 8.32292 76.7272 8.07471 76.0273 8.07471C75.0426 8.07471 74.3428 8.42871 73.9277 9.13672C73.5127 9.83659 73.3052 10.8416 73.3052 12.1519V19H69.582V11.0288C69.582 10.3778 69.5088 9.83252 69.3623 9.39307C69.2158 8.95361 68.992 8.62402 68.6909 8.4043C68.3898 8.18457 68.0033 8.07471 67.5312 8.07471C66.8395 8.07471 66.2943 8.24967 65.8955 8.59961C65.5049 8.94141 65.2241 9.45003 65.0532 10.1255C64.8905 10.7928 64.8091 11.6107 64.8091 12.5791V19H61.0859V5.35254H63.9302L64.4307 7.09814H64.6382C64.9149 6.62614 65.2607 6.24365 65.6758 5.95068C66.099 5.65771 66.5628 5.44206 67.0674 5.30371C67.5719 5.16536 68.0846 5.09619 68.6055 5.09619C69.6064 5.09619 70.4528 5.25895 71.1445 5.58447C71.8444 5.90999 72.3815 6.41455 72.7559 7.09814H73.0854C73.4924 6.39827 74.0661 5.88965 74.8066 5.57227C75.5553 5.25488 76.3244 5.09619 77.1138 5.09619ZM98.0488 12.1519C98.0488 13.2912 97.8942 14.3003 97.585 15.1792C97.2839 16.0581 96.8403 16.8027 96.2544 17.4131C95.6766 18.0153 94.9767 18.471 94.1548 18.7803C93.341 19.0895 92.4214 19.2441 91.396 19.2441C90.4357 19.2441 89.5527 19.0895 88.7471 18.7803C87.9495 18.471 87.2537 18.0153 86.6597 17.4131C86.0737 16.8027 85.618 16.0581 85.2925 15.1792C84.9751 14.3003 84.8164 13.2912 84.8164 12.1519C84.8164 10.6382 85.085 9.35645 85.6221 8.30664C86.1592 7.25684 86.9242 6.45931 87.917 5.91406C88.9098 5.36882 90.0939 5.09619 91.4692 5.09619C92.7469 5.09619 93.8781 5.36882 94.8628 5.91406C95.8556 6.45931 96.6328 7.25684 97.1943 8.30664C97.764 9.35645 98.0488 10.6382 98.0488 12.1519ZM88.6128 12.1519C88.6128 13.047 88.7104 13.7998 88.9058 14.4102C89.1011 15.0205 89.4062 15.4803 89.8213 15.7896C90.2363 16.0988 90.7775 16.2534 91.4448 16.2534C92.104 16.2534 92.637 16.0988 93.0439 15.7896C93.459 15.4803 93.7601 15.0205 93.9473 14.4102C94.1426 13.7998 94.2402 13.047 94.2402 12.1519C94.2402 11.2485 94.1426 10.4998 93.9473 9.90576C93.7601 9.30355 93.459 8.85189 93.0439 8.55078C92.6289 8.24967 92.0877 8.09912 91.4204 8.09912C90.4357 8.09912 89.7196 8.43685 89.272 9.1123C88.8325 9.78776 88.6128 10.8009 88.6128 12.1519Z" fill="white"/>
<path d="M107.119 1.15332C109.422 1.15332 111.102 1.64974 112.16 2.64258C113.218 3.62728 113.747 4.98633 113.747 6.71973C113.747 7.50098 113.629 8.24967 113.393 8.96582C113.157 9.67383 112.771 10.3045 112.233 10.8579C111.704 11.4113 110.996 11.8507 110.109 12.1763C109.222 12.4937 108.128 12.6523 106.826 12.6523H105.202V19H101.418V1.15332H107.119ZM106.923 4.25391H105.202V9.55176H106.447C107.155 9.55176 107.77 9.45817 108.291 9.271C108.811 9.08382 109.214 8.79085 109.499 8.39209C109.784 7.99333 109.926 7.48063 109.926 6.854C109.926 5.9751 109.682 5.32406 109.194 4.90088C108.706 4.46956 107.949 4.25391 106.923 4.25391ZM124.44 5.09619C124.628 5.09619 124.843 5.1084 125.087 5.13281C125.34 5.14909 125.543 5.1735 125.698 5.20605L125.417 8.69727C125.295 8.65658 125.12 8.62809 124.892 8.61182C124.672 8.5874 124.481 8.5752 124.318 8.5752C123.838 8.5752 123.37 8.63623 122.915 8.7583C122.467 8.88037 122.064 9.07975 121.706 9.35645C121.348 9.625 121.063 9.98307 120.852 10.4307C120.648 10.8701 120.546 11.4113 120.546 12.0542V19H116.823V5.35254H119.643L120.192 7.64746H120.375C120.644 7.18359 120.978 6.76042 121.376 6.37793C121.783 5.9873 122.243 5.67806 122.756 5.4502C123.277 5.21419 123.838 5.09619 124.44 5.09619ZM133.803 5.09619C135.065 5.09619 136.151 5.34033 137.062 5.82861C137.974 6.30876 138.678 7.00863 139.174 7.92822C139.671 8.84782 139.919 9.97087 139.919 11.2974V13.104H131.118C131.158 14.1538 131.472 14.9798 132.058 15.582C132.652 16.1761 133.474 16.4731 134.523 16.4731C135.394 16.4731 136.192 16.3836 136.916 16.2046C137.64 16.0256 138.385 15.757 139.15 15.3989V18.2798C138.474 18.6134 137.766 18.8576 137.026 19.0122C136.293 19.1668 135.402 19.2441 134.353 19.2441C132.985 19.2441 131.773 18.9919 130.715 18.4873C129.665 17.9827 128.839 17.2137 128.237 16.1802C127.643 15.1466 127.346 13.8446 127.346 12.2739C127.346 10.6789 127.614 9.35238 128.151 8.29443C128.697 7.22835 129.453 6.43083 130.422 5.90186C131.39 5.36475 132.517 5.09619 133.803 5.09619ZM133.828 7.74512C133.103 7.74512 132.501 7.97705 132.021 8.44092C131.549 8.90479 131.276 9.63314 131.203 10.626H136.428C136.42 10.0726 136.318 9.58024 136.123 9.14893C135.935 8.71761 135.651 8.37581 135.268 8.12354C134.894 7.87126 134.414 7.74512 133.828 7.74512ZM152.468 14.9473C152.468 15.875 152.248 16.6603 151.809 17.3032C151.377 17.938 150.73 18.4222 149.868 18.7559C149.005 19.0814 147.931 19.2441 146.645 19.2441C145.693 19.2441 144.875 19.1831 144.191 19.061C143.516 18.939 142.832 18.7355 142.141 18.4507V15.3745C142.881 15.7082 143.675 15.9849 144.521 16.2046C145.375 16.4162 146.124 16.522 146.767 16.522C147.491 16.522 148.008 16.4162 148.317 16.2046C148.635 15.9849 148.793 15.7 148.793 15.3501C148.793 15.1222 148.728 14.9188 148.598 14.7397C148.476 14.5526 148.208 14.3451 147.792 14.1172C147.377 13.8812 146.726 13.576 145.839 13.2017C144.985 12.8436 144.281 12.4814 143.728 12.1152C143.182 11.749 142.775 11.3177 142.507 10.8213C142.246 10.3167 142.116 9.6779 142.116 8.90479C142.116 7.64339 142.604 6.69531 143.581 6.06055C144.566 5.41764 145.88 5.09619 147.524 5.09619C148.37 5.09619 149.176 5.18164 149.941 5.35254C150.714 5.52344 151.507 5.79606 152.321 6.17041L151.198 8.85596C150.523 8.56299 149.884 8.32292 149.282 8.13574C148.688 7.94857 148.081 7.85498 147.463 7.85498C146.918 7.85498 146.507 7.92822 146.23 8.07471C145.953 8.22119 145.815 8.44499 145.815 8.74609C145.815 8.96582 145.884 9.16113 146.022 9.33203C146.169 9.50293 146.446 9.69417 146.853 9.90576C147.268 10.1092 147.874 10.3737 148.671 10.6992C149.444 11.0166 150.116 11.3503 150.686 11.7002C151.255 12.042 151.695 12.4692 152.004 12.9819C152.313 13.4865 152.468 14.1416 152.468 14.9473ZM161.123 16.2778C161.529 16.2778 161.924 16.2371 162.307 16.1558C162.697 16.0744 163.084 15.9727 163.466 15.8506V18.6216C163.068 18.8006 162.571 18.9471 161.977 19.061C161.391 19.1831 160.748 19.2441 160.048 19.2441C159.235 19.2441 158.502 19.1139 157.851 18.8535C157.208 18.585 156.7 18.1252 156.325 17.4741C155.959 16.8149 155.776 15.8994 155.776 14.7275V8.14795H153.994V6.57324L156.044 5.32812L157.119 2.44727H159.499V5.35254H163.32V8.14795H159.499V14.7275C159.499 15.2484 159.646 15.639 159.938 15.8994C160.24 16.1517 160.634 16.2778 161.123 16.2778ZM169.96 5.35254V19H166.237V5.35254H169.96ZM168.105 0.00585938C168.658 0.00585938 169.134 0.136068 169.533 0.396484C169.932 0.648763 170.131 1.12484 170.131 1.82471C170.131 2.51644 169.932 2.99658 169.533 3.26514C169.134 3.52555 168.658 3.65576 168.105 3.65576C167.543 3.65576 167.063 3.52555 166.665 3.26514C166.274 2.99658 166.079 2.51644 166.079 1.82471C166.079 1.12484 166.274 0.648763 166.665 0.396484C167.063 0.136068 167.543 0.00585938 168.105 0.00585938ZM177.871 25.0059C175.966 25.0059 174.51 24.6722 173.5 24.0049C172.5 23.3457 171.999 22.418 171.999 21.2217C171.999 20.3997 172.255 19.7121 172.768 19.1587C173.281 18.6053 174.034 18.2106 175.026 17.9746C174.644 17.8118 174.31 17.5474 174.025 17.1812C173.741 16.8068 173.598 16.4121 173.598 15.9971C173.598 15.4762 173.749 15.0449 174.05 14.7031C174.351 14.3532 174.786 14.0114 175.356 13.6777C174.64 13.3685 174.07 12.8721 173.647 12.1885C173.232 11.5049 173.024 10.6992 173.024 9.77148C173.024 8.77865 173.24 7.93636 173.671 7.24463C174.111 6.54476 174.746 6.01172 175.576 5.64551C176.414 5.2793 177.431 5.09619 178.627 5.09619C178.88 5.09619 179.173 5.11247 179.506 5.14502C179.84 5.17757 180.145 5.21419 180.422 5.25488C180.707 5.29557 180.898 5.32812 180.996 5.35254H185.756V7.24463L183.62 7.79395C183.815 8.09505 183.962 8.4165 184.06 8.7583C184.157 9.1001 184.206 9.46224 184.206 9.84473C184.206 11.3096 183.693 12.453 182.668 13.2749C181.651 14.0887 180.235 14.4956 178.42 14.4956C177.989 14.4712 177.582 14.4386 177.199 14.3979C177.012 14.5444 176.87 14.6991 176.772 14.8618C176.674 15.0246 176.625 15.1955 176.625 15.3745C176.625 15.5535 176.699 15.7041 176.845 15.8262C177 15.9401 177.228 16.0296 177.529 16.0947C177.838 16.1517 178.221 16.1802 178.676 16.1802H180.996C182.493 16.1802 183.632 16.5016 184.414 17.1445C185.203 17.7874 185.598 18.7314 185.598 19.9766C185.598 21.5716 184.93 22.8086 183.596 23.6875C182.269 24.5664 180.361 25.0059 177.871 25.0059ZM178.029 22.5767C178.916 22.5767 179.677 22.4912 180.312 22.3203C180.955 22.1576 181.447 21.9215 181.789 21.6123C182.131 21.3112 182.302 20.9491 182.302 20.5259C182.302 20.1841 182.2 19.9115 181.997 19.708C181.801 19.5127 181.5 19.3743 181.093 19.293C180.694 19.2116 180.182 19.1709 179.555 19.1709H177.626C177.171 19.1709 176.76 19.2441 176.394 19.3906C176.035 19.5371 175.751 19.7406 175.539 20.001C175.327 20.2695 175.222 20.5788 175.222 20.9287C175.222 21.4414 175.466 21.8442 175.954 22.1372C176.451 22.4302 177.142 22.5767 178.029 22.5767ZM178.627 12.2251C179.327 12.2251 179.84 12.0094 180.166 11.5781C180.491 11.1468 180.654 10.5609 180.654 9.82031C180.654 8.99837 180.483 8.38395 180.141 7.97705C179.807 7.56201 179.303 7.35449 178.627 7.35449C177.944 7.35449 177.431 7.56201 177.089 7.97705C176.748 8.38395 176.577 8.99837 176.577 9.82031C176.577 10.5609 176.743 11.1468 177.077 11.5781C177.419 12.0094 177.936 12.2251 178.627 12.2251ZM193.642 5.09619C194.903 5.09619 195.99 5.34033 196.901 5.82861C197.813 6.30876 198.517 7.00863 199.013 7.92822C199.51 8.84782 199.758 9.97087 199.758 11.2974V13.104H190.957C190.997 14.1538 191.311 14.9798 191.896 15.582C192.491 16.1761 193.312 16.4731 194.362 16.4731C195.233 16.4731 196.031 16.3836 196.755 16.2046C197.479 16.0256 198.224 15.757 198.989 15.3989V18.2798C198.313 18.6134 197.605 18.8576 196.865 19.0122C196.132 19.1668 195.241 19.2441 194.191 19.2441C192.824 19.2441 191.612 18.9919 190.554 18.4873C189.504 17.9827 188.678 17.2137 188.076 16.1802C187.482 15.1466 187.185 13.8446 187.185 12.2739C187.185 10.6789 187.453 9.35238 187.99 8.29443C188.535 7.22835 189.292 6.43083 190.261 5.90186C191.229 5.36475 192.356 5.09619 193.642 5.09619ZM193.667 7.74512C192.942 7.74512 192.34 7.97705 191.86 8.44092C191.388 8.90479 191.115 9.63314 191.042 10.626H196.267C196.258 10.0726 196.157 9.58024 195.961 9.14893C195.774 8.71761 195.489 8.37581 195.107 8.12354C194.733 7.87126 194.252 7.74512 193.667 7.74512Z" fill="#FF5500"/>
</svg>
